<?xml version="1.0" encoding="utf-8"?>
<!-- Generator: Adobe Illustrator 16.0.4, SVG Export Plug-In . SVG Version: 6.00 Build 0)  -->
<!DOCTYPE svg PUBLIC "-//W3C//DTD SVG 1.1//EN" "http://www.w3.org/Graphics/SVG/1.1/DTD/svg11.dtd">
<svg version="1.1" id="Layer_1" xmlns="http://www.w3.org/2000/svg" xmlns:xlink="http://www.w3.org/1999/xlink" x="0px" y="0px"
	 width="454.33px" height="189.399px" viewBox="0 0 454.33 189.399" enable-background="new 0 0 454.33 189.399"
	 xml:space="preserve">
<g>
	<g>
		<g>
			<path d="M9.498,187.548c5.925-40.825,29.511-77.092,59.519-104.582c30.421-27.868,70.227-48.239,111.917-50.248
				c1.926-0.093,1.935-3.093,0-3c-41.719,2.01-80.832,21.899-111.806,49.124C37.59,106.561,12.71,144.684,6.605,186.751
				C6.33,188.643,9.221,189.457,9.498,187.548L9.498,187.548z"/>
		</g>
	</g>
	<g>
		<g>
			<path d="M9.498,187.602c-1.825-4.527-3.749-9.1-6.625-13.073c-1.123-1.551-3.728-0.057-2.591,1.514
				c2.725,3.764,4.595,8.067,6.324,12.356C7.318,190.169,10.221,189.396,9.498,187.602L9.498,187.602z"/>
		</g>
	</g>
	<g>
		<g>
			<path d="M8.603,189.139c6.27-1.946,11.665-5.667,16.763-9.708c1.516-1.201-0.622-3.31-2.121-2.121
				c-4.678,3.707-9.69,7.151-15.44,8.937C5.963,186.817,6.75,189.714,8.603,189.139L8.603,189.139z"/>
		</g>
	</g>
	<g>
		<path d="M212.8,29.192l-6.254,1.635c-2.393,0.521-4.525,0.781-6.396,0.781c-6.302,0-9.453-2.274-9.453-6.822
			c0-2.18,1.019-4.727,3.056-7.641c1.706-2.439,3.612-4.478,5.721-6.111c2.559-1.99,4.833-2.985,6.823-2.985
			c2.89,0,4.335,1.362,4.335,4.087c0,0.45-0.166,1.919-0.498,4.406c-0.759-0.118-1.208-0.214-1.351-0.284
			c-0.261-0.143-0.545-0.485-0.853-1.031c0.331-1.326,0.498-2.345,0.498-3.056c0-1.326-0.735-1.99-2.204-1.99
			c-2.014,0-4.181,0.983-6.503,2.949c-1.872,1.611-3.459,3.472-4.762,5.579c-1.469,2.369-2.203,4.478-2.203,6.325
			c0,1.825,0.876,3.211,2.63,4.158c1.397,0.759,3.091,1.137,5.082,1.137c1.113,0,2.439-0.082,3.98-0.248
			c0.544-0.048,1.871-0.226,3.98-0.533c0.473-0.071,1.148-0.272,2.025-0.604c0.876-0.331,1.54-0.533,1.99-0.604
			C212.587,28.553,212.706,28.837,212.8,29.192z"/>
		<path d="M235.045,24.572c0,2.228-1.611,3.969-4.833,5.224c-2.44,0.948-5.01,1.422-7.711,1.422c-5.663,0-8.493-1.397-8.493-4.193
			c0-1.99,1.848-3.92,5.543-5.792c3.293-1.658,6.064-2.487,8.315-2.487c1.99,0,3.636,0.462,4.939,1.386
			C234.299,21.174,235.045,22.653,235.045,24.572z M233.091,24.359c0-1.16-0.592-2.037-1.777-2.63
			c-0.948-0.474-2.061-0.71-3.34-0.71c-2.132,0-4.347,0.592-6.645,1.776c-2.416,1.208-4.146,2.689-5.188,4.442
			c1.611,1.634,3.542,2.451,5.792,2.451c2.156,0,4.371-0.391,6.646-1.172C231.586,27.475,233.091,26.089,233.091,24.359z"/>
		<path d="M253.914,22.653c0,0.83-0.391,2.026-1.173,3.59s-1.504,2.653-2.167,3.269c0.023,0.309,0.047,0.498,0.071,0.569
			c0.047,0.166,0.13,0.344,0.249,0.532c-0.19,0.711-0.664,1.066-1.421,1.066c-0.403,0-0.764-0.119-1.084-0.355
			s-0.479-0.545-0.479-0.924c0-0.687,0.604-1.859,1.812-3.518c1.208-1.658,1.812-2.808,1.812-3.447c0-1.208-0.616-1.812-1.848-1.812
			c-1.635,0-3.222,0.759-4.762,2.274c-0.782,0.829-2.215,2.298-4.3,4.406c-1.659,1.683-3.258,2.653-4.797,2.914v-0.319l-0.32-0.355
			c0-1.256,1.161-3.27,3.482-6.041c1.327-1.587,2.179-2.736,2.559-3.447c0.213-0.616,0.45-1.231,0.71-1.848
			c0.213-0.474,0.42-0.806,0.622-0.995c0.201-0.189,0.527-0.284,0.977-0.284c0.663,0,0.995,0.344,0.995,1.03
			c0,0.475-0.06,0.853-0.178,1.138c-0.024,0.095-0.284,0.734-0.782,1.918c2.037-1.089,3.198-1.693,3.482-1.812
			c1.611-0.782,2.795-1.173,3.554-1.173c0.9,0,1.623,0.373,2.167,1.119S253.914,21.729,253.914,22.653z"/>
		<path d="M279.57,10.643c0,0.854-0.237,1.671-0.71,2.452c-0.474,0.782-1.09,1.386-1.848,1.812l0.782-3.305
			c0-0.758-0.291-1.392-0.871-1.901c-0.581-0.509-1.262-0.764-2.043-0.764c-2.559,0-4.679,1.172-6.361,3.518
			c-0.426,0.593-1.611,2.879-3.554,6.858c2.014,0.593,3.15,0.983,3.412,1.173c0.64,0.45,0.959,1.09,0.959,1.919
			c-1.421-0.236-2.843-0.485-4.264-0.746c-1.137,0-2.168,0.9-3.092,2.7c-0.166,0.332-0.794,1.729-1.883,4.193
			c-1.09,1.776-2.594,2.866-4.513,3.27c0-0.924,0.32-2.026,0.959-3.305c0.119-0.237,1.255-2.049,3.412-5.438
			c-0.261-0.261-0.426-0.391-0.498-0.391c-0.332,0-0.924,0.119-1.777,0.355c-1.09,0.474-1.789,0.711-2.097,0.711
			c-0.497,0-0.835-0.071-1.013-0.214c-0.178-0.142-0.397-0.462-0.657-0.959c0-0.782,0.627-1.279,1.883-1.493
			c0.829-0.094,2.073-0.271,3.731-0.532c1.492-0.261,2.546-0.925,3.163-1.99c1.468-2.559,2.463-4.229,2.985-5.011
			c2.914-4.358,6.005-6.538,9.274-6.538c1.279,0,2.333,0.272,3.163,0.817C279.084,8.476,279.57,9.411,279.57,10.643z"/>
		<path d="M278.717,20.983c0,0.38-0.664,2.263-1.99,5.65c-0.166,0.427-0.415,1.055-0.746,1.884
			c-0.284,0.639-0.652,1.042-1.102,1.208c-0.261,0.095-0.794,0.142-1.599,0.142c0-0.165-0.03-0.402-0.089-0.711
			c-0.06-0.307-0.089-0.544-0.089-0.71c0-0.521,0.201-1.102,0.604-1.741c0.545-0.876,0.853-1.409,0.924-1.6
			c0.189-0.592,0.557-1.635,1.102-3.127c0.402-1.042,1.042-1.919,1.918-2.63C278.362,20.06,278.717,20.604,278.717,20.983z
			 M282.058,11.212c0,0.853-0.569,1.278-1.706,1.278c-1.042,0-1.563-0.426-1.563-1.278c0-0.427,0.136-1.019,0.409-1.777
			c0.272-0.758,0.42-1.326,0.444-1.706c0.236,0.143,0.687,0.817,1.35,2.026c0.047,0.07,0.261,0.284,0.64,0.64
			C281.916,10.655,282.058,10.927,282.058,11.212z"/>
		<path d="M297.799,21.268c0,0.521-0.249,1.422-0.746,2.701c-0.237,0.616-0.355,1.102-0.355,1.457c0,3.601-0.225,6.597-0.675,8.99
			c-1.421,7.676-5.236,11.514-11.442,11.514c-1.114,0-2.559-0.344-4.335-1.031c-2.132-0.806-3.198-1.67-3.198-2.594
			c0-0.213,0.106-0.64,0.32-1.279h0.355c0.616,0.687,1.658,1.374,3.127,2.062c1.469,0.687,2.641,1.03,3.518,1.03
			c2.866,0,5.259-1.374,7.178-4.122c1.706-2.464,2.559-5.212,2.559-8.244c0-0.734-0.142-1.351-0.427-1.848
			c-0.474-0.189-0.841-0.284-1.102-0.284c-0.142,0-0.391,0.047-0.746,0.142s-0.628,0.143-0.817,0.143
			c-2.298,0-3.98-0.13-5.046-0.392c-2.132-0.521-3.198-1.587-3.198-3.198c0-2.273,1.303-4.3,3.909-6.076
			c2.393-1.635,4.762-2.452,7.107-2.452C296.46,17.785,297.799,18.946,297.799,21.268z M295.525,20.842
			c0-0.782-0.723-1.173-2.168-1.173c-1.516,0-3.21,0.64-5.082,1.919c-2.061,1.397-3.091,2.819-3.091,4.264
			c0,1.588,1.551,2.381,4.655,2.381c0.805,0,1.599-0.118,2.381-0.354c1.113-0.332,1.67-0.806,1.67-1.422
			c0-0.165-0.053-0.402-0.16-0.711c-0.107-0.308-0.16-0.533-0.16-0.675c0-0.284,0.438-1.148,1.315-2.594
			C295.312,21.789,295.525,21.244,295.525,20.842z"/>
		<path d="M322.46,16.897c0,0.853-0.592,1.989-1.777,3.411c-0.663,0.781-1.836,2.203-3.518,4.264
			c-1.256,1.564-1.884,2.998-1.884,4.3c0,0.688,0.438,1.02,1.315,0.995c0.189,0,0.367-0.012,0.533-0.035h0.355
			c0.355,0,0.734,0.06,1.137,0.178l0.498,0.568c-0.095,0.023-0.675,0.178-1.741,0.462c-0.71,0.166-1.292,0.249-1.741,0.249
			c-0.972,0-1.658-0.236-2.061-0.711c-0.332-0.427-0.498-1.137-0.498-2.132v-0.817c0-0.261,0.012-0.533,0.036-0.817
			c-1.635,1.043-2.784,1.753-3.447,2.132c-2.985,1.635-5.556,2.452-7.711,2.452c-2.393,0-3.589-0.58-3.589-1.741
			c0-0.853,1.089-2.617,3.269-5.295c1.493-1.824,2.961-3.47,4.407-4.939c1.895-1.919,3.115-2.878,3.66-2.878
			c0.45,0,0.675,0.236,0.675,0.71c0,0.617-0.865,1.919-2.594,3.909c-0.759,0.83-1.896,2.097-3.412,3.803
			c-1.54,1.776-2.535,3.187-2.985,4.229l0.355,0.355c0.166,0,0.402,0.012,0.71,0.035c0.308,0.024,0.545,0.036,0.711,0.036
			c0.734,0,1.516-0.166,2.345-0.498c0.498-0.213,1.244-0.533,2.239-0.959c2.511-1.019,4.43-2.062,5.757-3.128
			c0.687-0.544,1.622-1.634,2.807-3.269c0.521-0.734,1.469-2.049,2.843-3.944c0.947-1.279,1.67-1.919,2.167-1.919
			c0.285,0,0.592,0.118,0.924,0.355L322.46,16.897z"/>
		<path d="M337.847,23.08l-5.579-1.812c-1.374,0-2.583,0.937-3.625,2.808c-0.379,0.64-1.013,2.149-1.901,4.53
			c-0.889,2.381-2.316,3.571-4.282,3.571c0.118-0.971,0.734-2.31,1.848-4.015c1.208-1.849,1.931-3.21,2.168-4.087
			c0.189-0.734,0.32-1.942,0.391-3.625c0.023-0.71,0.189-1.444,0.498-2.203c0.426-1.065,0.912-1.622,1.457-1.67l0.675,0.035
			l0.355,2.417c0.166,0.616,0.723,0.924,1.67,0.924h1.208c0.213-0.023,0.379-0.035,0.498-0.035
			C335.951,19.87,337.491,20.925,337.847,23.08z"/>
		<path d="M355.223,28.872c-0.711,0.782-2.393,1.375-5.046,1.777c-1.872,0.284-3.779,0.426-5.721,0.426
			c-4.003,0-6.005-1.148-6.005-3.446c0-2.819,2.084-5.235,6.254-7.249c1.445-0.711,2.949-1.291,4.513-1.741
			c1.516,0.354,2.523,0.616,3.021,0.781c1.066,0.355,1.599,1.244,1.599,2.665c0,1.256-0.806,2.251-2.417,2.985
			c-1.35,0.616-2.724,0.924-4.122,0.924c-2.18,0-3.743-0.331-4.69-0.995c-1.185,0.568-1.777,1.304-1.777,2.203
			c0,1.588,1.445,2.381,4.335,2.381c1.066,0,2.31-0.071,3.731-0.213C352.238,29.038,354.346,28.872,355.223,28.872z M351.563,22.05
			c-0.711-0.758-1.576-1.138-2.594-1.138c-0.734,0-1.398,0.155-1.99,0.463c-0.023,0.023-0.628,0.354-1.812,0.994
			c0.71,1.138,1.682,1.706,2.914,1.706C349.478,24.075,350.639,23.4,351.563,22.05z"/>
		<path d="M389.052,17.146c0,0.901-0.711,2.203-2.132,3.909c-0.758,0.877-2.085,2.464-3.98,4.762
			c-1.421,1.754-2.132,3.198-2.132,4.335c0,0.309,0.047,0.569,0.142,0.782c-1.801,0.497-3.495,1.942-5.082,4.335l-5.331,8.103
			c-0.332-0.071-0.959-0.403-1.883-0.995c0.379-0.782,1.232-2.014,2.559-3.696c0.687-0.805,1.693-2.025,3.021-3.659
			c1.113-1.398,1.67-2.322,1.67-2.772c0-0.688-0.545-1.03-1.634-1.03h-0.711c-1.09-0.118-1.883-1.042-2.381-2.771
			c-0.332-1.161-0.498-2.487-0.498-3.98c0-1.657,0.178-3.601,0.533-5.827c1.445,0,2.167,1.16,2.167,3.482
			c0,0.426-0.042,1.054-0.124,1.883c-0.083,0.83-0.125,1.457-0.125,1.884c0,2.891,1.255,4.335,3.767,4.335
			c0.782,0,1.919-1.066,3.412-3.198c0.426-0.615,1.776-2.76,4.051-6.432c1.611-2.605,2.819-4.276,3.625-5.011
			c0.166,0.119,0.385,0.368,0.658,0.746C388.916,16.708,389.052,16.98,389.052,17.146z"/>
		<path d="M409.556,24.572c0,2.228-1.611,3.969-4.833,5.224c-2.44,0.948-5.01,1.422-7.711,1.422c-5.663,0-8.493-1.397-8.493-4.193
			c0-1.99,1.848-3.92,5.543-5.792c3.293-1.658,6.064-2.487,8.315-2.487c1.99,0,3.636,0.462,4.939,1.386
			C408.81,21.174,409.556,22.653,409.556,24.572z M407.601,24.359c0-1.16-0.592-2.037-1.777-2.63c-0.948-0.474-2.061-0.71-3.34-0.71
			c-2.132,0-4.347,0.592-6.645,1.776c-2.416,1.208-4.146,2.689-5.188,4.442c1.611,1.634,3.542,2.451,5.792,2.451
			c2.156,0,4.371-0.391,6.646-1.172C406.097,27.475,407.601,26.089,407.601,24.359z"/>
		<path d="M434.11,16.897c0,0.853-0.592,1.989-1.777,3.411c-0.663,0.781-1.836,2.203-3.518,4.264
			c-1.256,1.564-1.884,2.998-1.884,4.3c0,0.688,0.438,1.02,1.315,0.995c0.189,0,0.367-0.012,0.533-0.035h0.355
			c0.355,0,0.734,0.06,1.137,0.178l0.498,0.568c-0.095,0.023-0.675,0.178-1.741,0.462c-0.71,0.166-1.292,0.249-1.741,0.249
			c-0.972,0-1.658-0.236-2.061-0.711c-0.332-0.427-0.498-1.137-0.498-2.132v-0.817c0-0.261,0.012-0.533,0.036-0.817
			c-1.635,1.043-2.784,1.753-3.447,2.132c-2.985,1.635-5.556,2.452-7.711,2.452c-2.393,0-3.589-0.58-3.589-1.741
			c0-0.853,1.089-2.617,3.269-5.295c1.493-1.824,2.961-3.47,4.407-4.939c1.895-1.919,3.115-2.878,3.66-2.878
			c0.45,0,0.675,0.236,0.675,0.71c0,0.617-0.865,1.919-2.594,3.909c-0.759,0.83-1.896,2.097-3.412,3.803
			c-1.54,1.776-2.535,3.187-2.985,4.229l0.355,0.355c0.166,0,0.402,0.012,0.71,0.035c0.308,0.024,0.545,0.036,0.711,0.036
			c0.734,0,1.516-0.166,2.345-0.498c0.498-0.213,1.244-0.533,2.239-0.959c2.511-1.019,4.43-2.062,5.757-3.128
			c0.687-0.544,1.622-1.634,2.807-3.269c0.521-0.734,1.469-2.049,2.843-3.944c0.947-1.279,1.67-1.919,2.167-1.919
			c0.285,0,0.592,0.118,0.924,0.355L434.11,16.897z"/>
		<path d="M449.498,23.08l-5.58-1.812c-1.374,0-2.583,0.937-3.625,2.808c-0.379,0.64-1.013,2.149-1.901,4.53
			c-0.889,2.381-2.316,3.571-4.282,3.571c0.118-0.971,0.734-2.31,1.848-4.015c1.208-1.849,1.931-3.21,2.168-4.087
			c0.189-0.734,0.32-1.942,0.391-3.625c0.023-0.71,0.189-1.444,0.498-2.203c0.426-1.065,0.912-1.622,1.457-1.67l0.675,0.035
			l0.355,2.417c0.166,0.616,0.723,0.924,1.67,0.924h1.208c0.213-0.023,0.379-0.035,0.498-0.035
			C447.601,19.87,449.142,20.925,449.498,23.08z"/>
		<path d="M211.77,61.991c0,2.796-1.504,5.354-4.513,7.676c-2.109,1.611-4.774,3.009-7.996,4.193
			c-3.317,1.16-6.266,1.741-8.848,1.741c-3.056,0-4.584-0.817-4.584-2.452c0-0.711,0.533-1.255,1.599-1.635
			c-0.023,0.237-0.036,0.403-0.036,0.498c0,0.877,0.308,1.48,0.924,1.812c0.474,0.213,1.185,0.319,2.132,0.319
			c2.321,0,5.069-0.627,8.244-1.883c3.008-1.232,5.496-2.63,7.462-4.193c2.582-2.062,3.873-4.158,3.873-6.29
			c0-2.511-2.025-4.986-6.076-7.427c-3.672-2.203-6.858-3.305-9.559-3.305h-0.711c-1.848,0-2.938-0.367-3.269-1.102
			c0-0.379,0.249-0.698,0.746-0.96c0.403-0.213,0.817-0.319,1.244-0.319c2.488,0,5.283,0.663,8.387,1.99
			c2.985,1.256,5.437,2.76,7.355,4.513C210.562,57.372,211.77,59.646,211.77,61.991z M203.455,56.697
			c0.023,0.71-0.415,1.776-1.315,3.197c-0.284,0.451-1.185,1.73-2.701,3.838c-1.208,1.683-2.167,3.554-2.878,5.615
			c-0.308,0.521-0.664,0.781-1.066,0.781c-0.308,0-0.599-0.124-0.871-0.373c-0.272-0.249-0.409-0.526-0.409-0.835
			c0-0.521,0.438-1.303,1.315-2.346l1.883-2.238c0.378-0.592,0.947-1.788,1.706-3.589c1.231-2.914,2.559-4.667,3.98-5.26l0.32,0.32
			L203.455,56.697z"/>
		<path d="M230.212,74.145c-0.521,1.138-1.137,1.706-1.848,1.706c-0.806,0-1.694-0.593-2.666-1.777
			c-0.758-0.899-1.374-1.871-1.848-2.913c-1.99,0.947-3.34,1.563-4.051,1.848c-1.753,0.688-3.163,1.03-4.229,1.03
			c-1.872,0-2.807-0.947-2.807-2.843c0-3.056,1.658-5.78,4.975-8.173c1.089-0.782,2.559-1.623,4.406-2.523
			c2.203-1.066,3.767-1.599,4.69-1.599c0.64,0,1.244,0.344,1.812,1.03c0.568,0.688,0.853,1.362,0.853,2.025
			c0,1.303-0.516,3.015-1.546,5.135c-1.031,2.12-1.546,3.347-1.546,3.678c0,1.138,0.178,1.919,0.533,2.346
			C227.228,73.47,228.317,73.813,230.212,74.145z M228.933,62.134c0-0.853-0.734-1.279-2.203-1.279
			c-2.156,0-3.944,0.485-5.366,1.457c-1.327,0.9-2.701,2.108-4.122,3.624c-1.801,1.919-2.701,3.436-2.701,4.549
			c0,0.664,0.284,1.173,0.853,1.528c0.498,0.308,1.102,0.462,1.812,0.462c2.061,0,3.826-0.723,5.295-2.168
			c0.355-0.355,1.362-1.717,3.021-4.086c1.018-1.469,2.001-2.203,2.949-2.203C228.779,63.354,228.933,62.727,228.933,62.134z
			 M230.106,74.855v-0.106h0.071v-0.106h-0.071v-0.214h0.142V74.5h-0.071v0.071h0.071v0.284H230.106z"/>
		<path d="M250.822,56.839c-0.213,1.114-1.102,1.896-2.665,2.346c-0.924,0.236-2.571,0.651-4.939,1.243
			c-2.038,0.521-3.518,1.256-4.442,2.203c2.985,0.735,4.844,1.244,5.579,1.528c2.605,0.972,3.909,2.097,3.909,3.376
			c0,1.848-1.552,3.577-4.655,5.188c-2.748,1.397-5.141,2.096-7.178,2.096c-1.683,0-3.222-0.651-4.62-1.954
			c-1.517-1.421-2.215-2.938-2.097-4.549l0.036-0.532c0.663,0.236,1.622,1.231,2.878,2.984c1.184,1.635,2.226,2.452,3.127,2.452
			c1.54,0,3.53-0.521,5.97-1.563c2.819-1.208,4.229-2.464,4.229-3.767c0-0.924-0.83-1.635-2.488-2.132
			c-0.071,0-1.836-0.45-5.294-1.351c-1.919-0.498-3.175-1.078-3.767-1.741c0.711-0.782,2.12-1.611,4.229-2.487
			c1.35-0.569,3.363-1.256,6.041-2.062c2.89-0.876,4.596-1.409,5.117-1.599C250.099,56.686,250.443,56.792,250.822,56.839z"/>
		<path d="M273.529,62.88c0,1.09-0.705,2.985-2.114,5.686c-1.41,2.701-2.114,4.466-2.114,5.295c0,0.687,0.189,1.351,0.568,1.99
			c-0.853,0.449-1.516,0.675-1.99,0.675c-0.877,0-1.315-0.45-1.315-1.351c0-0.947,0.693-2.836,2.079-5.668
			c1.386-2.83,2.079-4.791,2.079-5.881c0-0.142-0.024-0.367-0.071-0.675c-0.048-0.308-0.071-0.533-0.071-0.676
			c-3.483,0.403-6.847,1.73-10.092,3.98c-3.364,2.346-5.698,5.081-7,8.209c-0.521-0.19-1.303-0.392-2.345-0.604
			c0.118-0.521,0.936-1.788,2.452-3.803c0.544-0.687,2.049-2.665,4.513-5.934c1.8-2.393,2.938-3.992,3.412-4.798
			c0.142-0.236,0.853-1.883,2.132-4.939c0.924-2.179,1.777-3.624,2.559-4.335c0.284,0.166,0.58,0.344,0.888,0.533
			c0.308,0.189,0.462,0.45,0.462,0.781c0,0.355-2.002,4.562-6.006,12.615c1.99-0.876,3.731-1.622,5.224-2.238
			c2.843-1.185,4.454-1.777,4.833-1.777c0.426,0,0.746,0.106,0.959,0.32C273.209,60.926,273.529,61.791,273.529,62.88z"/>
		<path d="M294.993,46.641c-0.332,1.469-1.232,3.127-2.701,4.975c-0.758,0.924-2.109,2.582-4.051,4.975
			c-1.493,1.825-2.37,3.389-2.63,4.691l4.691,0.924c2.084,0.688,3.127,1.765,3.127,3.233c0,2.085-1.825,4.229-5.473,6.432
			c-3.34,1.99-6.112,2.985-8.315,2.985c-0.877,0-2.796-0.545-5.757-1.635v-0.675c0-0.355,0.225-0.806,0.675-1.351
			c0.853-1.042,2.001-2.404,3.447-4.087l3.518-4.086c1.516-1.753,2.559-2.985,3.127-3.696c1.161-1.421,2.073-2.736,2.736-3.944
			c0.64-1.137,1.789-3.186,3.447-6.147C291.83,47.506,293.216,46.641,294.993,46.641z M291.475,65.545
			c0-0.829-0.521-1.433-1.563-1.812c-0.758-0.284-1.635-0.426-2.629-0.426c-2.251,0-4.335,0.853-6.254,2.559
			c-1.919,1.705-2.878,3.672-2.878,5.898c0,1.019,0.533,1.528,1.599,1.528c1.8,0,4.134-0.841,7-2.523
			C289.899,68.921,291.475,67.18,291.475,65.545z"/>
		<path d="M315.567,67.215c0,2.228-1.611,3.969-4.833,5.224c-2.44,0.948-5.01,1.422-7.711,1.422c-5.663,0-8.493-1.397-8.493-4.193
			c0-1.99,1.848-3.92,5.543-5.792c3.293-1.658,6.064-2.487,8.315-2.487c1.99,0,3.636,0.462,4.939,1.386
			C314.821,63.816,315.567,65.296,315.567,67.215z M313.612,67.002c0-1.16-0.592-2.037-1.777-2.63
			c-0.948-0.474-2.061-0.71-3.34-0.71c-2.132,0-4.347,0.592-6.645,1.776c-2.416,1.208-4.146,2.689-5.188,4.442
			c1.611,1.634,3.542,2.451,5.792,2.451c2.156,0,4.371-0.391,6.646-1.172C312.108,70.117,313.612,68.731,313.612,67.002z"/>
		<path d="M333.796,74.145c-0.521,1.138-1.137,1.706-1.848,1.706c-0.806,0-1.694-0.593-2.666-1.777
			c-0.758-0.899-1.374-1.871-1.848-2.913c-1.99,0.947-3.34,1.563-4.051,1.848c-1.753,0.688-3.163,1.03-4.229,1.03
			c-1.872,0-2.807-0.947-2.807-2.843c0-3.056,1.658-5.78,4.975-8.173c1.089-0.782,2.559-1.623,4.406-2.523
			c2.203-1.066,3.767-1.599,4.69-1.599c0.64,0,1.244,0.344,1.812,1.03c0.568,0.688,0.853,1.362,0.853,2.025
			c0,1.303-0.516,3.015-1.546,5.135c-1.031,2.12-1.546,3.347-1.546,3.678c0,1.138,0.178,1.919,0.533,2.346
			C330.812,73.47,331.901,73.813,333.796,74.145z M332.517,62.134c0-0.853-0.734-1.279-2.203-1.279
			c-2.156,0-3.944,0.485-5.366,1.457c-1.327,0.9-2.701,2.108-4.122,3.624c-1.801,1.919-2.701,3.436-2.701,4.549
			c0,0.664,0.284,1.173,0.853,1.528c0.498,0.308,1.102,0.462,1.812,0.462c2.061,0,3.826-0.723,5.295-2.168
			c0.355-0.355,1.362-1.717,3.021-4.086c1.018-1.469,2.001-2.203,2.949-2.203C332.363,63.354,332.517,62.727,332.517,62.134z
			 M333.69,74.855v-0.106h0.071v-0.106h-0.071v-0.214h0.142V74.5h-0.071v0.071h0.071v0.284H333.69z"/>
		<path d="M348.045,65.723l-5.579-1.812c-1.374,0-2.583,0.937-3.625,2.808c-0.379,0.64-1.013,2.149-1.901,4.53
			c-0.889,2.381-2.316,3.571-4.282,3.571c0.118-0.971,0.734-2.31,1.848-4.015c1.208-1.849,1.931-3.21,2.168-4.087
			c0.189-0.734,0.32-1.942,0.391-3.625c0.023-0.71,0.189-1.444,0.498-2.203c0.426-1.065,0.912-1.622,1.457-1.67l0.675,0.035
			l0.355,2.417c0.166,0.616,0.723,0.924,1.67,0.924h1.208c0.213-0.023,0.379-0.035,0.498-0.035
			C346.15,62.513,347.69,63.567,348.045,65.723z"/>
		<path d="M368.797,52.077c-0.166,0.972-0.723,2.559-1.67,4.762l-2.808,6.539c-1.208,2.819-1.954,4.738-2.238,5.756
			c1.137,0,1.788,0.166,1.954,0.498c-0.261,0.592-0.782,1.291-1.563,2.097c-0.9,0.924-1.599,1.386-2.097,1.386
			c-0.379,0-0.93-0.041-1.652-0.125c-0.723-0.082-1.273-0.124-1.652-0.124c-0.426,0-1.054,0.03-1.883,0.089
			c-0.83,0.06-1.457,0.089-1.883,0.089c-3.104,0-4.655-0.864-4.655-2.594c0-2.085,1.113-3.992,3.34-5.722
			c2.108-1.635,4.24-2.452,6.396-2.452c0.663,0,1.315,0.143,1.955,0.427c0.142,0.071,0.722,0.391,1.741,0.96l0.32-0.32v-0.711
			l0.355-0.319c-0.119-0.711,0.527-2.777,1.937-6.201c1.409-3.423,2.28-5.135,2.612-5.135c0.402,0,0.817,0.166,1.244,0.498
			L368.797,52.077z M360.269,67.145c0-1.871-0.841-2.808-2.523-2.808c-1.208,0-2.665,0.545-4.371,1.635
			c-1.848,1.185-2.771,2.345-2.771,3.482c0,1.208,1.551,1.812,4.655,1.812C358.599,71.267,360.269,69.893,360.269,67.145z"/>
		<path d="M404.154,62.88c0,1.09-0.705,2.985-2.114,5.686c-1.41,2.701-2.114,4.466-2.114,5.295c0,0.687,0.189,1.351,0.568,1.99
			c-0.853,0.449-1.516,0.675-1.99,0.675c-0.877,0-1.315-0.45-1.315-1.351c0-0.947,0.693-2.836,2.079-5.668
			c1.386-2.83,2.079-4.791,2.079-5.881c0-0.142-0.024-0.367-0.071-0.675c-0.048-0.308-0.071-0.533-0.071-0.676
			c-3.483,0.403-6.847,1.73-10.092,3.98c-3.364,2.346-5.698,5.081-7,8.209c-0.521-0.19-1.303-0.392-2.345-0.604
			c0.118-0.521,0.936-1.788,2.452-3.803c0.544-0.687,2.049-2.665,4.513-5.934c1.8-2.393,2.938-3.992,3.412-4.798
			c0.142-0.236,0.853-1.883,2.132-4.939c0.924-2.179,1.777-3.624,2.559-4.335c0.284,0.166,0.58,0.344,0.888,0.533
			c0.308,0.189,0.462,0.45,0.462,0.781c0,0.355-2.002,4.562-6.006,12.615c1.99-0.876,3.731-1.622,5.224-2.238
			c2.843-1.185,4.454-1.777,4.833-1.777c0.426,0,0.746,0.106,0.959,0.32C403.834,60.926,404.154,61.791,404.154,62.88z"/>
		<path d="M421.247,71.515c-0.711,0.782-2.393,1.375-5.046,1.777c-1.872,0.284-3.779,0.426-5.721,0.426
			c-4.003,0-6.005-1.148-6.005-3.446c0-2.819,2.084-5.235,6.254-7.249c1.445-0.711,2.949-1.291,4.513-1.741
			c1.516,0.354,2.523,0.616,3.021,0.781c1.066,0.355,1.599,1.244,1.599,2.665c0,1.256-0.806,2.251-2.417,2.985
			c-1.35,0.616-2.724,0.924-4.122,0.924c-2.18,0-3.743-0.331-4.69-0.995c-1.185,0.568-1.777,1.304-1.777,2.203
			c0,1.588,1.445,2.381,4.335,2.381c1.066,0,2.31-0.071,3.731-0.213C418.262,71.681,420.37,71.515,421.247,71.515z M417.587,64.692
			c-0.711-0.758-1.576-1.138-2.594-1.138c-0.734,0-1.398,0.155-1.99,0.463c-0.023,0.023-0.628,0.354-1.812,0.994
			c0.71,1.138,1.682,1.706,2.914,1.706C415.502,66.718,416.663,66.043,417.587,64.692z"/>
		<path d="M436.954,65.723l-5.579-1.812c-1.374,0-2.583,0.937-3.625,2.808c-0.379,0.64-1.013,2.149-1.901,4.53
			c-0.889,2.381-2.316,3.571-4.282,3.571c0.118-0.971,0.734-2.31,1.848-4.015c1.208-1.849,1.931-3.21,2.168-4.087
			c0.189-0.734,0.32-1.942,0.391-3.625c0.023-0.71,0.189-1.444,0.498-2.203c0.426-1.065,0.912-1.622,1.457-1.67l0.675,0.035
			l0.355,2.417c0.166,0.616,0.723,0.924,1.67,0.924h1.208c0.213-0.023,0.379-0.035,0.498-0.035
			C435.058,62.513,436.598,63.567,436.954,65.723z"/>
		<path d="M454.33,71.515c-0.711,0.782-2.393,1.375-5.045,1.777c-1.873,0.284-3.78,0.426-5.722,0.426
			c-4.003,0-6.005-1.148-6.005-3.446c0-2.819,2.084-5.235,6.254-7.249c1.445-0.711,2.949-1.291,4.512-1.741
			c1.516,0.354,2.523,0.616,3.021,0.781c1.066,0.355,1.6,1.244,1.6,2.665c0,1.256-0.807,2.251-2.418,2.985
			c-1.35,0.616-2.724,0.924-4.122,0.924c-2.18,0-3.743-0.331-4.69-0.995c-1.185,0.568-1.777,1.304-1.777,2.203
			c0,1.588,1.445,2.381,4.335,2.381c1.066,0,2.31-0.071,3.731-0.213C451.345,71.681,453.453,71.515,454.33,71.515z M450.669,64.692
			c-0.711-0.758-1.576-1.138-2.594-1.138c-0.734,0-1.398,0.155-1.99,0.463c-0.023,0.023-0.628,0.354-1.812,0.994
			c0.71,1.138,1.682,1.706,2.914,1.706C448.585,66.718,449.746,66.043,450.669,64.692z"/>
	</g>
</g>
<g>
</g>
<g>
</g>
<g>
</g>
<g>
</g>
<g>
</g>
<g>
</g>
<g>
</g>
<g>
</g>
<g>
</g>
<g>
</g>
<g>
</g>
<g>
</g>
<g>
</g>
<g>
</g>
<g>
</g>
</svg>
