<?xml version="1.0" encoding="utf-8"?>
<!-- Generator: Adobe Illustrator 16.0.4, SVG Export Plug-In . SVG Version: 6.00 Build 0)  -->
<!DOCTYPE svg PUBLIC "-//W3C//DTD SVG 1.1//EN" "http://www.w3.org/Graphics/SVG/1.1/DTD/svg11.dtd">
<svg version="1.1" id="Layer_1" xmlns="http://www.w3.org/2000/svg" xmlns:xlink="http://www.w3.org/1999/xlink" x="0px" y="0px"
	 width="454.33px" height="189.398px" viewBox="0 0 454.33 189.398" enable-background="new 0 0 454.33 189.398"
	 xml:space="preserve">
<g>
	<g>
		<g>
			<path d="M9.498,187.548c5.925-40.825,29.511-77.092,59.519-104.582c30.421-27.868,70.227-48.239,111.917-50.248
				c1.926-0.093,1.935-3.093,0-3c-41.719,2.01-80.832,21.899-111.806,49.124C37.59,106.561,12.71,144.684,6.605,186.751
				C6.33,188.643,9.221,189.457,9.498,187.548L9.498,187.548z"/>
		</g>
	</g>
	<g>
		<g>
			<path d="M9.498,187.602c-1.825-4.526-3.749-9.1-6.625-13.073c-1.123-1.551-3.728-0.057-2.591,1.515
				c2.725,3.764,4.595,8.066,6.324,12.355C7.318,190.169,10.221,189.396,9.498,187.602L9.498,187.602z"/>
		</g>
	</g>
	<g>
		<g>
			<path d="M8.603,189.139c6.27-1.946,11.665-5.667,16.763-9.708c1.516-1.201-0.622-3.31-2.121-2.121
				c-4.678,3.707-9.69,7.151-15.44,8.938C5.963,186.817,6.75,189.714,8.603,189.139L8.603,189.139z"/>
		</g>
	</g>
	<g>
		<path d="M219.385,30.697c0,2.79-1.501,5.343-4.503,7.659c-2.104,1.608-4.764,3.003-7.979,4.185
			c-3.31,1.158-6.253,1.738-8.83,1.738c-3.049,0-4.574-0.816-4.574-2.447c0-0.709,0.532-1.253,1.596-1.631
			c-0.023,0.236-0.036,0.402-0.036,0.497c0,0.875,0.308,1.478,0.922,1.808c0.473,0.213,1.182,0.319,2.127,0.319
			c2.316,0,5.059-0.626,8.227-1.879c3.002-1.229,5.484-2.624,7.447-4.185c2.576-2.057,3.865-4.149,3.865-6.276
			c0-2.505-2.021-4.976-6.063-7.411c-3.665-2.199-6.844-3.298-9.539-3.298h-0.709c-1.844,0-2.932-0.366-3.263-1.1
			c0-0.377,0.249-0.697,0.745-0.957c0.402-0.213,0.816-0.319,1.241-0.319c2.482,0,5.271,0.662,8.369,1.986
			c2.979,1.253,5.426,2.754,7.34,4.503C218.18,26.087,219.385,28.356,219.385,30.697z M211.087,25.413
			c0.023,0.709-0.414,1.773-1.312,3.191c-0.284,0.449-1.182,1.726-2.695,3.83c-1.206,1.679-2.163,3.546-2.873,5.603
			c-0.308,0.52-0.662,0.78-1.063,0.78c-0.308,0-0.598-0.125-0.869-0.373c-0.272-0.248-0.408-0.526-0.408-0.833
			c0-0.52,0.437-1.3,1.312-2.34l1.879-2.234c0.378-0.591,0.945-1.785,1.702-3.582c1.229-2.908,2.553-4.657,3.972-5.248l0.319,0.319
			L211.087,25.413z"/>
		<path d="M237.788,42.824c-0.52,1.135-1.135,1.702-1.844,1.702c-0.803,0-1.689-0.591-2.658-1.773
			c-0.758-0.898-1.371-1.867-1.844-2.908c-1.986,0.946-3.334,1.56-4.043,1.844c-1.75,0.686-3.156,1.028-4.22,1.028
			c-1.868,0-2.801-0.945-2.801-2.837c0-3.049,1.654-5.768,4.964-8.156c1.087-0.78,2.553-1.619,4.397-2.518
			c2.199-1.064,3.76-1.596,4.682-1.596c0.637,0,1.24,0.343,1.809,1.028c0.566,0.686,0.85,1.359,0.85,2.021
			c0,1.3-0.514,3.009-1.541,5.124c-1.029,2.116-1.543,3.339-1.543,3.67c0,1.135,0.178,1.915,0.531,2.34
			C234.81,42.15,235.897,42.493,237.788,42.824z M236.513,30.838c0-0.851-0.732-1.276-2.199-1.276c-2.15,0-3.936,0.485-5.354,1.454
			c-1.324,0.899-2.696,2.104-4.114,3.617c-1.797,1.915-2.695,3.428-2.695,4.539c0,0.662,0.284,1.17,0.851,1.525
			c0.497,0.307,1.099,0.461,1.809,0.461c2.057,0,3.817-0.721,5.284-2.163c0.354-0.355,1.359-1.714,3.014-4.078
			c1.016-1.465,1.998-2.199,2.943-2.199C236.358,32.056,236.513,31.429,236.513,30.838z M237.683,43.533v-0.106h0.07v-0.106h-0.07
			v-0.213h0.143v0.071h-0.072v0.071h0.072v0.284H237.683z"/>
		<path d="M258.356,25.554c-0.213,1.112-1.1,1.892-2.66,2.341c-0.922,0.236-2.565,0.65-4.929,1.241
			c-2.033,0.521-3.511,1.253-4.433,2.199c2.979,0.733,4.834,1.241,5.567,1.525c2.6,0.97,3.9,2.092,3.9,3.369
			c0,1.844-1.549,3.57-4.646,5.177c-2.742,1.395-5.13,2.092-7.163,2.092c-1.679,0-3.215-0.65-4.609-1.95
			c-1.514-1.418-2.211-2.931-2.093-4.539l0.036-0.532c0.661,0.237,1.619,1.229,2.872,2.979c1.182,1.631,2.222,2.447,3.12,2.447
			c1.537,0,3.522-0.52,5.958-1.561c2.812-1.206,4.22-2.458,4.22-3.759c0-0.922-0.828-1.631-2.482-2.127
			c-0.071,0-1.832-0.449-5.283-1.348c-1.915-0.497-3.169-1.075-3.759-1.737c0.709-0.78,2.115-1.607,4.22-2.482
			c1.347-0.567,3.356-1.253,6.028-2.057c2.884-0.875,4.586-1.406,5.106-1.596C257.635,25.401,257.978,25.508,258.356,25.554z"/>
		<path d="M281.016,31.583c0,1.088-0.704,2.979-2.11,5.674s-2.109,4.457-2.109,5.284c0,0.686,0.188,1.348,0.567,1.986
			c-0.852,0.449-1.514,0.674-1.986,0.674c-0.874,0-1.312-0.45-1.312-1.348c0-0.946,0.691-2.831,2.074-5.656
			c1.383-2.825,2.074-4.781,2.074-5.869c0-0.142-0.023-0.366-0.07-0.673c-0.048-0.307-0.071-0.532-0.071-0.674
			c-3.475,0.402-6.832,1.726-10.07,3.972c-3.357,2.34-5.687,5.071-6.986,8.191c-0.521-0.189-1.3-0.39-2.34-0.603
			c0.117-0.52,0.934-1.785,2.446-3.794c0.544-0.685,2.045-2.659,4.504-5.922c1.796-2.387,2.931-3.983,3.404-4.787
			c0.142-0.236,0.851-1.879,2.127-4.929c0.922-2.174,1.773-3.617,2.554-4.326c0.283,0.166,0.579,0.343,0.887,0.532
			c0.307,0.189,0.461,0.449,0.461,0.78c0,0.355-1.998,4.551-5.993,12.589c1.985-0.875,3.724-1.619,5.213-2.234
			c2.837-1.182,4.444-1.773,4.822-1.773c0.426,0,0.745,0.106,0.958,0.319C280.696,29.633,281.016,30.496,281.016,31.583z"/>
		<path d="M302.434,15.378c-0.332,1.466-1.229,3.12-2.695,4.964c-0.757,0.922-2.104,2.577-4.042,4.964
			c-1.49,1.821-2.364,3.381-2.625,4.681l4.682,0.922c2.08,0.686,3.12,1.761,3.12,3.227c0,2.081-1.82,4.22-5.461,6.418
			c-3.333,1.986-6.1,2.979-8.298,2.979c-0.875,0-2.79-0.544-5.744-1.631v-0.674c0-0.354,0.224-0.803,0.674-1.348
			c0.851-1.04,1.997-2.399,3.439-4.078l3.511-4.078c1.513-1.749,2.553-2.979,3.12-3.688c1.158-1.418,2.068-2.73,2.73-3.936
			c0.639-1.135,1.785-3.179,3.439-6.135C299.277,16.24,300.66,15.378,302.434,15.378z M298.923,34.242
			c0-0.827-0.521-1.43-1.561-1.809c-0.757-0.284-1.631-0.425-2.624-0.425c-2.246,0-4.326,0.851-6.241,2.553
			s-2.872,3.665-2.872,5.886c0,1.017,0.532,1.525,1.596,1.525c1.796,0,4.125-0.839,6.985-2.518
			C297.351,37.611,298.923,35.874,298.923,34.242z"/>
		<path d="M322.965,35.909c0,2.223-1.607,3.96-4.822,5.213c-2.436,0.946-5,1.418-7.695,1.418c-5.65,0-8.475-1.395-8.475-4.185
			c0-1.985,1.844-3.912,5.531-5.78c3.286-1.654,6.052-2.482,8.298-2.482c1.986,0,3.629,0.461,4.929,1.383
			C322.221,32.517,322.965,33.994,322.965,35.909z M321.015,35.697c0-1.158-0.591-2.033-1.773-2.624
			c-0.945-0.473-2.057-0.709-3.333-0.709c-2.128,0-4.338,0.591-6.631,1.773c-2.411,1.206-4.138,2.684-5.178,4.433
			c1.607,1.631,3.534,2.447,5.78,2.447c2.151,0,4.361-0.39,6.631-1.17C319.513,38.805,321.015,37.422,321.015,35.697z"/>
		<path d="M341.155,42.824c-0.52,1.135-1.135,1.702-1.844,1.702c-0.804,0-1.69-0.591-2.659-1.773
			c-0.757-0.898-1.371-1.867-1.844-2.908c-1.986,0.946-3.334,1.56-4.043,1.844c-1.75,0.686-3.156,1.028-4.22,1.028
			c-1.868,0-2.802-0.945-2.802-2.837c0-3.049,1.655-5.768,4.965-8.156c1.087-0.78,2.553-1.619,4.397-2.518
			c2.198-1.064,3.759-1.596,4.681-1.596c0.638,0,1.241,0.343,1.809,1.028s0.851,1.359,0.851,2.021c0,1.3-0.514,3.009-1.542,5.124
			c-1.028,2.116-1.543,3.339-1.543,3.67c0,1.135,0.178,1.915,0.532,2.34C338.177,42.15,339.264,42.493,341.155,42.824z
			 M339.879,30.838c0-0.851-0.732-1.276-2.198-1.276c-2.151,0-3.937,0.485-5.354,1.454c-1.324,0.899-2.695,2.104-4.113,3.617
			c-1.797,1.915-2.695,3.428-2.695,4.539c0,0.662,0.283,1.17,0.851,1.525c0.497,0.307,1.1,0.461,1.809,0.461
			c2.057,0,3.818-0.721,5.284-2.163c0.354-0.355,1.359-1.714,3.014-4.078c1.017-1.465,1.998-2.199,2.943-2.199
			C339.725,32.056,339.879,31.429,339.879,30.838z M341.05,43.533v-0.106h0.07v-0.106h-0.07v-0.213h0.142v0.071h-0.071v0.071h0.071
			v0.284H341.05z"/>
		<path d="M355.375,34.42l-5.567-1.809c-1.371,0-2.577,0.935-3.617,2.802c-0.378,0.638-1.011,2.145-1.897,4.521
			c-0.886,2.376-2.311,3.564-4.272,3.564c0.118-0.969,0.732-2.305,1.844-4.007c1.206-1.844,1.927-3.203,2.163-4.078
			c0.188-0.732,0.319-1.938,0.39-3.617c0.023-0.709,0.189-1.441,0.497-2.199c0.426-1.063,0.909-1.619,1.454-1.667l0.674,0.036
			l0.354,2.411c0.165,0.615,0.721,0.922,1.666,0.922h1.206c0.213-0.023,0.378-0.035,0.496-0.035
			C353.483,31.217,355.021,32.269,355.375,34.42z"/>
		<path d="M376.083,20.803c-0.166,0.97-0.722,2.553-1.667,4.751l-2.801,6.525c-1.206,2.813-1.95,4.729-2.234,5.745
			c1.135,0,1.785,0.166,1.95,0.497c-0.26,0.591-0.78,1.289-1.56,2.092c-0.899,0.922-1.596,1.383-2.093,1.383
			c-0.378,0-0.928-0.041-1.648-0.124c-0.722-0.083-1.271-0.124-1.649-0.124c-0.426,0-1.052,0.03-1.879,0.088
			c-0.828,0.06-1.454,0.089-1.88,0.089c-3.097,0-4.646-0.863-4.646-2.589c0-2.08,1.111-3.983,3.334-5.709
			c2.104-1.631,4.231-2.447,6.383-2.447c0.661,0,1.312,0.142,1.95,0.425c0.142,0.071,0.721,0.39,1.737,0.958l0.319-0.319v-0.709
			l0.354-0.319c-0.118-0.709,0.525-2.771,1.933-6.188c1.406-3.416,2.275-5.124,2.606-5.124c0.401,0,0.815,0.166,1.241,0.496
			L376.083,20.803z M367.572,35.838c0-1.867-0.839-2.801-2.518-2.801c-1.206,0-2.659,0.544-4.361,1.631
			c-1.844,1.182-2.767,2.34-2.767,3.475c0,1.206,1.549,1.808,4.646,1.808C365.906,39.951,367.572,38.581,367.572,35.838z"/>
		<path d="M411.366,31.583c0,1.088-0.704,2.979-2.11,5.674s-2.109,4.457-2.109,5.284c0,0.686,0.188,1.348,0.567,1.986
			c-0.852,0.449-1.514,0.674-1.986,0.674c-0.874,0-1.312-0.45-1.312-1.348c0-0.946,0.691-2.831,2.074-5.656
			c1.383-2.825,2.074-4.781,2.074-5.869c0-0.142-0.023-0.366-0.07-0.673c-0.048-0.307-0.071-0.532-0.071-0.674
			c-3.475,0.402-6.832,1.726-10.07,3.972c-3.357,2.34-5.687,5.071-6.986,8.191c-0.521-0.189-1.3-0.39-2.34-0.603
			c0.117-0.52,0.934-1.785,2.446-3.794c0.544-0.685,2.045-2.659,4.504-5.922c1.796-2.387,2.931-3.983,3.404-4.787
			c0.142-0.236,0.851-1.879,2.127-4.929c0.922-2.174,1.773-3.617,2.554-4.326c0.283,0.166,0.579,0.343,0.887,0.532
			c0.307,0.189,0.461,0.449,0.461,0.78c0,0.355-1.998,4.551-5.993,12.589c1.985-0.875,3.724-1.619,5.213-2.234
			c2.837-1.182,4.444-1.773,4.822-1.773c0.426,0,0.745,0.106,0.958,0.319C411.047,29.633,411.366,30.496,411.366,31.583z"/>
		<path d="M417.465,32.327c0,0.379-0.662,2.258-1.985,5.639c-0.166,0.425-0.414,1.052-0.745,1.879
			c-0.283,0.638-0.65,1.041-1.1,1.206c-0.26,0.095-0.792,0.142-1.596,0.142c0-0.165-0.029-0.401-0.088-0.709
			c-0.06-0.307-0.089-0.543-0.089-0.709c0-0.52,0.2-1.099,0.603-1.737c0.544-0.875,0.852-1.406,0.922-1.596
			c0.189-0.591,0.556-1.631,1.1-3.121c0.401-1.04,1.04-1.915,1.915-2.624C417.11,31.406,417.465,31.95,417.465,32.327z
			 M420.798,22.576c0,0.851-0.567,1.276-1.702,1.276c-1.04,0-1.56-0.425-1.56-1.276c0-0.425,0.136-1.016,0.407-1.773
			c0.271-0.756,0.42-1.324,0.443-1.702c0.236,0.142,0.686,0.815,1.348,2.021c0.047,0.071,0.26,0.284,0.639,0.639
			C420.656,22.021,420.798,22.292,420.798,22.576z"/>
		<path d="M437.748,40.2c-0.709,0.78-2.388,1.371-5.035,1.773c-1.867,0.284-3.771,0.426-5.709,0.426
			c-3.995,0-5.993-1.146-5.993-3.44c0-2.813,2.08-5.224,6.241-7.234c1.441-0.709,2.943-1.288,4.504-1.738
			c1.513,0.355,2.518,0.615,3.014,0.78c1.064,0.354,1.596,1.241,1.596,2.66c0,1.253-0.804,2.246-2.411,2.979
			c-1.348,0.615-2.719,0.922-4.113,0.922c-2.176,0-3.735-0.331-4.681-0.993c-1.183,0.567-1.773,1.3-1.773,2.199
			c0,1.584,1.441,2.375,4.326,2.375c1.064,0,2.305-0.071,3.724-0.212C434.77,40.365,436.874,40.2,437.748,40.2z M434.096,33.391
			c-0.709-0.756-1.572-1.135-2.588-1.135c-0.733,0-1.396,0.154-1.986,0.461c-0.023,0.024-0.627,0.355-1.809,0.993
			c0.709,1.135,1.679,1.702,2.908,1.702C432.016,35.413,433.174,34.739,434.096,33.391z"/>
		<path d="M453.422,34.42l-5.567-1.809c-1.371,0-2.577,0.935-3.617,2.802c-0.378,0.638-1.011,2.145-1.897,4.521
			c-0.886,2.376-2.311,3.564-4.272,3.564c0.118-0.969,0.732-2.305,1.844-4.007c1.206-1.844,1.927-3.203,2.163-4.078
			c0.188-0.732,0.319-1.938,0.39-3.617c0.023-0.709,0.189-1.441,0.497-2.199c0.426-1.063,0.909-1.619,1.454-1.667l0.674,0.036
			l0.354,2.411c0.165,0.615,0.721,0.922,1.666,0.922h1.206c0.213-0.023,0.378-0.035,0.496-0.035
			C451.53,31.217,453.067,32.269,453.422,34.42z"/>
		<path d="M216.371,69.03c0,1.3-0.863,2.506-2.588,3.617c-0.993,0.638-2.648,1.377-4.965,2.216
			c-2.317,0.839-3.924,1.555-4.823,2.146l-0.39,0.815c0.142,0.97,0.851,2.956,2.127,5.958c1.229,2.837,1.844,4.444,1.844,4.823
			c0,0.969-0.626,1.702-1.879,2.198c-0.26-1.206-1.052-3.191-2.375-5.957c-1.49-3.144-2.589-4.858-3.298-5.142
			c-0.45,1.892-0.769,3.145-0.958,3.759c-0.26,0.875-1.277,1.312-3.05,1.312v-0.815c0-0.497,1.016-2.671,3.05-6.525
			c0.874-1.654,2.849-5.331,5.922-11.028c0.236-0.449,0.91-1.82,2.021-4.113c0.804-1.678,1.525-3.002,2.163-3.972
			c0.094-0.142,0.343-0.307,0.745-0.496c0.425,0.236,0.661,0.378,0.709,0.425c0.118,0.119,0.271,0.39,0.461,0.815
			c-0.189,1.135-0.886,2.625-2.092,4.468c-0.686,1.017-1.879,2.861-3.582,5.532c-1.276,2.034-2.069,3.984-2.375,5.851
			c1.206-0.307,2.576-0.815,4.113-1.525c1.3-0.638,2.612-1.276,3.936-1.915c1.654-1.229,3.321-2.458,5-3.688
			C216.182,68.214,216.276,68.628,216.371,69.03z"/>
		<path d="M235.591,78.462c0,2.223-1.607,3.96-4.822,5.213c-2.436,0.946-5,1.418-7.696,1.418c-5.65,0-8.475-1.395-8.475-4.185
			c0-1.985,1.844-3.912,5.532-5.78c3.286-1.654,6.052-2.482,8.297-2.482c1.986,0,3.629,0.461,4.93,1.383
			C234.847,75.07,235.591,76.547,235.591,78.462z M233.64,78.249c0-1.158-0.59-2.033-1.773-2.624
			c-0.945-0.473-2.057-0.709-3.332-0.709c-2.128,0-4.339,0.591-6.631,1.773c-2.412,1.206-4.137,2.684-5.177,4.433
			c1.607,1.631,3.534,2.447,5.78,2.447c2.151,0,4.362-0.39,6.63-1.17C232.138,81.358,233.64,79.975,233.64,78.249z"/>
		<path d="M254.42,76.547c0,0.828-0.39,2.021-1.17,3.582c-0.78,1.56-1.502,2.648-2.163,3.262c0.023,0.308,0.047,0.497,0.07,0.567
			c0.048,0.166,0.13,0.343,0.249,0.532c-0.189,0.709-0.662,1.064-1.419,1.064c-0.402,0-0.763-0.119-1.081-0.354
			c-0.319-0.236-0.479-0.543-0.479-0.922c0-0.686,0.604-1.856,1.809-3.511c1.206-1.654,1.809-2.801,1.809-3.44
			c0-1.206-0.615-1.808-1.844-1.808c-1.631,0-3.215,0.757-4.752,2.27c-0.78,0.828-2.211,2.293-4.291,4.397
			c-1.654,1.679-3.25,2.648-4.787,2.908v-0.319l-0.318-0.354c0-1.252,1.157-3.262,3.475-6.028c1.324-1.583,2.175-2.73,2.554-3.439
			c0.212-0.615,0.448-1.229,0.709-1.844c0.213-0.473,0.419-0.803,0.62-0.993c0.201-0.189,0.526-0.284,0.976-0.284
			c0.661,0,0.993,0.343,0.993,1.028c0,0.473-0.06,0.851-0.178,1.135c-0.023,0.095-0.283,0.733-0.78,1.915
			c2.033-1.087,3.191-1.69,3.476-1.809c1.607-0.78,2.789-1.17,3.546-1.17c0.898,0,1.619,0.373,2.163,1.117
			C254.147,74.792,254.42,75.625,254.42,76.547z"/>
		<path d="M280.022,64.561c0,0.851-0.237,1.667-0.71,2.447s-1.087,1.383-1.844,1.809l0.78-3.298c0-0.756-0.29-1.389-0.869-1.897
			s-1.259-0.763-2.038-0.763c-2.554,0-4.67,1.17-6.348,3.511c-0.426,0.591-1.608,2.872-3.546,6.844
			c2.009,0.591,3.144,0.981,3.403,1.17c0.639,0.449,0.958,1.087,0.958,1.915c-1.419-0.236-2.837-0.484-4.256-0.745
			c-1.134,0-2.163,0.899-3.085,2.695c-0.165,0.331-0.792,1.726-1.879,4.184c-1.088,1.773-2.589,2.86-4.504,3.263
			c0-0.922,0.319-2.021,0.958-3.298c0.118-0.236,1.252-2.045,3.404-5.426c-0.261-0.26-0.426-0.39-0.497-0.39
			c-0.331,0-0.922,0.119-1.772,0.355c-1.088,0.473-1.785,0.709-2.093,0.709c-0.496,0-0.833-0.071-1.011-0.213
			c-0.177-0.142-0.396-0.461-0.655-0.957c0-0.78,0.626-1.277,1.879-1.49c0.827-0.094,2.068-0.271,3.724-0.532
			c1.489-0.26,2.541-0.922,3.156-1.986c1.465-2.553,2.458-4.22,2.979-5c2.907-4.35,5.992-6.525,9.255-6.525
			c1.276,0,2.328,0.272,3.156,0.816C279.537,62.398,280.022,63.332,280.022,64.561z"/>
		<path d="M279.171,74.88c0,0.379-0.662,2.258-1.985,5.639c-0.166,0.425-0.414,1.052-0.745,1.879c-0.283,0.638-0.65,1.041-1.1,1.206
			c-0.26,0.095-0.792,0.142-1.596,0.142c0-0.165-0.029-0.401-0.088-0.709c-0.06-0.307-0.089-0.543-0.089-0.709
			c0-0.52,0.2-1.099,0.603-1.737c0.544-0.875,0.852-1.406,0.922-1.596c0.189-0.591,0.556-1.631,1.1-3.121
			c0.401-1.04,1.04-1.915,1.915-2.624C278.816,73.958,279.171,74.503,279.171,74.88z M282.504,65.129
			c0,0.851-0.567,1.276-1.702,1.276c-1.04,0-1.56-0.425-1.56-1.276c0-0.425,0.136-1.016,0.407-1.773
			c0.271-0.756,0.42-1.324,0.443-1.702c0.236,0.142,0.686,0.815,1.348,2.021c0.047,0.071,0.26,0.284,0.639,0.639
			C282.362,64.573,282.504,64.845,282.504,65.129z"/>
		<path d="M298.213,75.164c0,0.521-0.249,1.418-0.745,2.695c-0.236,0.615-0.354,1.099-0.354,1.454c0,3.594-0.226,6.583-0.674,8.972
			c-1.419,7.659-5.225,11.489-11.418,11.489c-1.112,0-2.554-0.343-4.326-1.028c-2.128-0.804-3.192-1.667-3.192-2.589
			c0-0.213,0.106-0.639,0.319-1.276h0.354c0.615,0.686,1.655,1.37,3.121,2.057c1.466,0.686,2.636,1.028,3.511,1.028
			c2.859,0,5.248-1.371,7.163-4.113c1.702-2.459,2.553-5.201,2.553-8.227c0-0.732-0.142-1.347-0.426-1.844
			c-0.473-0.189-0.839-0.284-1.099-0.284c-0.143,0-0.391,0.048-0.745,0.142c-0.354,0.095-0.627,0.142-0.815,0.142
			c-2.293,0-3.972-0.13-5.035-0.39c-2.128-0.52-3.191-1.583-3.191-3.191c0-2.27,1.3-4.291,3.9-6.064
			c2.388-1.631,4.752-2.447,7.092-2.447C296.877,71.689,298.213,72.847,298.213,75.164z M295.943,74.739
			c0-0.78-0.722-1.17-2.163-1.17c-1.514,0-3.204,0.639-5.071,1.915c-2.057,1.395-3.085,2.813-3.085,4.255
			c0,1.584,1.548,2.376,4.646,2.376c0.803,0,1.596-0.118,2.376-0.355c1.11-0.331,1.666-0.803,1.666-1.418
			c0-0.165-0.053-0.401-0.159-0.709c-0.106-0.307-0.16-0.532-0.16-0.674c0-0.284,0.438-1.146,1.312-2.588
			C295.73,75.684,295.943,75.141,295.943,74.739z"/>
		<path d="M322.822,70.802c0,0.851-0.591,1.986-1.773,3.404c-0.662,0.78-1.832,2.198-3.511,4.255
			c-1.253,1.561-1.879,2.991-1.879,4.291c0,0.686,0.438,1.017,1.312,0.993c0.188,0,0.366-0.012,0.531-0.035h0.354
			c0.354,0,0.732,0.059,1.135,0.177l0.497,0.567c-0.095,0.024-0.674,0.177-1.738,0.461c-0.709,0.166-1.288,0.248-1.737,0.248
			c-0.97,0-1.655-0.236-2.057-0.709c-0.331-0.426-0.496-1.135-0.496-2.128v-0.815c0-0.26,0.012-0.532,0.035-0.815
			c-1.631,1.041-2.778,1.75-3.439,2.127c-2.979,1.631-5.544,2.447-7.695,2.447c-2.388,0-3.581-0.579-3.581-1.737
			c0-0.851,1.087-2.612,3.262-5.284c1.489-1.82,2.955-3.463,4.397-4.929c1.891-1.915,3.108-2.872,3.652-2.872
			c0.449,0,0.674,0.236,0.674,0.709c0,0.615-0.863,1.915-2.589,3.901c-0.757,0.828-1.892,2.092-3.404,3.794
			c-1.537,1.773-2.529,3.18-2.979,4.22l0.354,0.355c0.165,0,0.402,0.012,0.709,0.035c0.308,0.024,0.544,0.036,0.71,0.036
			c0.732,0,1.513-0.165,2.34-0.497c0.497-0.213,1.241-0.532,2.234-0.958c2.506-1.016,4.42-2.057,5.744-3.12
			c0.686-0.544,1.619-1.631,2.802-3.263c0.52-0.732,1.466-2.044,2.837-3.936c0.945-1.276,1.667-1.915,2.163-1.915
			c0.283,0,0.591,0.119,0.922,0.355L322.822,70.802z"/>
		<path d="M338.177,76.972l-5.567-1.809c-1.371,0-2.577,0.935-3.617,2.802c-0.378,0.638-1.011,2.145-1.897,4.521
			c-0.886,2.376-2.311,3.564-4.272,3.564c0.118-0.969,0.732-2.305,1.844-4.007c1.206-1.844,1.927-3.203,2.163-4.078
			c0.188-0.732,0.319-1.938,0.39-3.617c0.023-0.709,0.189-1.441,0.497-2.199c0.426-1.063,0.909-1.619,1.454-1.667l0.674,0.036
			l0.354,2.411c0.165,0.615,0.721,0.922,1.666,0.922h1.206c0.213-0.023,0.378-0.035,0.496-0.035
			C336.285,73.769,337.822,74.822,338.177,76.972z"/>
		<path d="M344.559,74.88c0,0.379-0.662,2.258-1.985,5.639c-0.166,0.425-0.414,1.052-0.745,1.879c-0.283,0.638-0.65,1.041-1.1,1.206
			c-0.26,0.095-0.792,0.142-1.596,0.142c0-0.165-0.029-0.401-0.088-0.709c-0.06-0.307-0.089-0.543-0.089-0.709
			c0-0.52,0.2-1.099,0.603-1.737c0.544-0.875,0.852-1.406,0.922-1.596c0.189-0.591,0.556-1.631,1.1-3.121
			c0.401-1.04,1.04-1.915,1.915-2.624C344.204,73.958,344.559,74.503,344.559,74.88z M347.892,65.129
			c0,0.851-0.567,1.276-1.702,1.276c-1.04,0-1.56-0.425-1.56-1.276c0-0.425,0.136-1.016,0.407-1.773
			c0.271-0.756,0.42-1.324,0.443-1.702c0.236,0.142,0.686,0.815,1.348,2.021c0.047,0.071,0.26,0.284,0.639,0.639
			C347.75,64.573,347.892,64.845,347.892,65.129z"/>
		<path d="M364.842,82.753c-0.709,0.78-2.388,1.371-5.035,1.773c-1.867,0.284-3.771,0.426-5.709,0.426
			c-3.995,0-5.993-1.146-5.993-3.44c0-2.813,2.08-5.224,6.241-7.234c1.441-0.709,2.943-1.288,4.504-1.738
			c1.513,0.355,2.518,0.615,3.014,0.78c1.064,0.354,1.596,1.241,1.596,2.66c0,1.253-0.804,2.246-2.411,2.979
			c-1.348,0.615-2.719,0.922-4.113,0.922c-2.176,0-3.735-0.331-4.681-0.993c-1.183,0.567-1.773,1.3-1.773,2.199
			c0,1.584,1.441,2.375,4.326,2.375c1.064,0,2.305-0.071,3.724-0.212C361.863,82.918,363.968,82.753,364.842,82.753z
			 M361.189,75.944c-0.709-0.756-1.572-1.135-2.588-1.135c-0.733,0-1.396,0.154-1.986,0.461c-0.023,0.024-0.627,0.355-1.809,0.993
			c0.709,1.135,1.679,1.702,2.908,1.702C359.109,77.966,360.268,77.292,361.189,75.944z"/>
		<path d="M380.516,76.972l-5.567-1.809c-1.371,0-2.577,0.935-3.617,2.802c-0.378,0.638-1.011,2.145-1.897,4.521
			c-0.886,2.376-2.311,3.564-4.272,3.564c0.118-0.969,0.732-2.305,1.844-4.007c1.206-1.844,1.927-3.203,2.163-4.078
			c0.188-0.732,0.319-1.938,0.39-3.617c0.023-0.709,0.189-1.441,0.497-2.199c0.426-1.063,0.909-1.619,1.454-1.667l0.674,0.036
			l0.354,2.411c0.165,0.615,0.721,0.922,1.666,0.922h1.206c0.213-0.023,0.378-0.035,0.496-0.035
			C378.624,73.769,380.161,74.822,380.516,76.972z"/>
		<path d="M397.854,82.753c-0.709,0.78-2.388,1.371-5.035,1.773c-1.867,0.284-3.771,0.426-5.709,0.426
			c-3.995,0-5.993-1.146-5.993-3.44c0-2.813,2.08-5.224,6.241-7.234c1.441-0.709,2.943-1.288,4.504-1.738
			c1.513,0.355,2.518,0.615,3.014,0.78c1.064,0.354,1.596,1.241,1.596,2.66c0,1.253-0.804,2.246-2.411,2.979
			c-1.348,0.615-2.719,0.922-4.113,0.922c-2.176,0-3.735-0.331-4.681-0.993c-1.183,0.567-1.773,1.3-1.773,2.199
			c0,1.584,1.441,2.375,4.326,2.375c1.064,0,2.305-0.071,3.724-0.212C394.876,82.918,396.98,82.753,397.854,82.753z M394.202,75.944
			c-0.709-0.756-1.572-1.135-2.588-1.135c-0.733,0-1.396,0.154-1.986,0.461c-0.023,0.024-0.627,0.355-1.809,0.993
			c0.709,1.135,1.679,1.702,2.908,1.702C392.122,77.966,393.28,77.292,394.202,75.944z"/>
		<path d="M416.862,76.547c0,0.828-0.39,2.021-1.17,3.582c-0.78,1.56-1.502,2.648-2.163,3.262c0.023,0.308,0.047,0.497,0.07,0.567
			c0.048,0.166,0.13,0.343,0.249,0.532c-0.189,0.709-0.662,1.064-1.419,1.064c-0.402,0-0.763-0.119-1.081-0.354
			c-0.319-0.236-0.479-0.543-0.479-0.922c0-0.686,0.604-1.856,1.809-3.511c1.206-1.654,1.809-2.801,1.809-3.44
			c0-1.206-0.615-1.808-1.844-1.808c-1.631,0-3.215,0.757-4.752,2.27c-0.78,0.828-2.211,2.293-4.291,4.397
			c-1.654,1.679-3.25,2.648-4.787,2.908v-0.319l-0.318-0.354c0-1.252,1.157-3.262,3.475-6.028c1.324-1.583,2.175-2.73,2.554-3.439
			c0.212-0.615,0.448-1.229,0.709-1.844c0.213-0.473,0.419-0.803,0.62-0.993c0.201-0.189,0.526-0.284,0.976-0.284
			c0.661,0,0.993,0.343,0.993,1.028c0,0.473-0.06,0.851-0.178,1.135c-0.023,0.095-0.283,0.733-0.78,1.915
			c2.033-1.087,3.191-1.69,3.476-1.809c1.607-0.78,2.789-1.17,3.546-1.17c0.898,0,1.619,0.373,2.163,1.117
			C416.59,74.792,416.862,75.625,416.862,76.547z"/>
	</g>
</g>
</svg>
